<svg width="18" height="18" viewBox="0 0 18 18" xmlns="http://www.w3.org/2000/svg">
    <path d="M17.719 8.438h-1.997a6.744 6.744 0 0 0-6.16-6.16V.281A.281.281 0 0 0 9.283 0h-.563a.281.281 0 0 0-.281.281v1.997a6.744 6.744 0 0 0-6.16 6.16H.281a.281.281 0 0 0-.281.28v.563c0 .156.126.281.281.281h1.997a6.744 6.744 0 0 0 6.16 6.16v1.997c0 .155.125.281.28.281h.563a.281.281 0 0 0 .281-.281v-1.997a6.744 6.744 0 0 0 6.16-6.16h1.997a.281.281 0 0 0 .281-.28v-.563a.281.281 0 0 0-.281-.281zM9 14.625A5.632 5.632 0 0 1 3.375 9 5.632 5.632 0 0 1 9 3.375 5.632 5.632 0 0 1 14.625 9 5.632 5.632 0 0 1 9 14.625zm0-9a3.375 3.375 0 1 0 0 6.75 3.375 3.375 0 0 0 0-6.75zm0 5.625c-1.24 0-2.25-1.01-2.25-2.25S7.76 6.75 9 6.75 11.25 7.76 11.25 9 10.24 11.25 9 11.25z" fill="#1C1F2A" fill-rule="nonzero"/>
</svg>
