<?xml version="1.0" encoding="UTF-8"?>
<svg width="18px" height="18px" viewBox="0 0 18 18" version="1.1" xmlns="http://www.w3.org/2000/svg" xmlns:xlink="http://www.w3.org/1999/xlink">
    <title>8153FCEE-7F88-45E0-ADE2-4289D476198B</title>
    <g id="Desk" stroke="none" stroke-width="1" fill="none" fill-rule="evenodd">
        <g id="Interior-Categoría-filtros-cerrados" transform="translate(-587.000000, -25.000000)" fill="#000000" fill-rule="nonzero">
            <g id="Iconos/Close1" transform="translate(587.000000, 24.999064)">
                <path d="M10.9094659,9.00028126 L16.6786462,3.23110097 L17.8683709,2.04137629 C18.0438764,1.86587081 18.0438764,1.5806744 17.8683709,1.40516891 L16.5953936,0.132191631 C16.4198881,-0.0433138536 16.1346917,-0.0433138536 15.9591862,0.132191631 L9.00028126,7.0910966 L2.04137629,0.131629113 C1.86587081,-0.0438763711 1.5806744,-0.0438763711 1.40516891,0.131629113 L0.131629113,1.40460639 C-0.0438763711,1.58011188 -0.0438763711,1.86530829 0.131629113,2.04081378 L7.0910966,9.00028126 L0.131629113,15.9591862 C-0.0438763711,16.1346917 -0.0438763711,16.4198881 0.131629113,16.5953936 L1.40460639,17.8683709 C1.58011188,18.0438764 1.86530829,18.0438764 2.04081378,17.8683709 L9.00028126,10.9094659 L14.7694615,16.6786462 L15.9591862,17.8683709 C16.1346917,18.0438764 16.4198881,18.0438764 16.5953936,17.8683709 L17.8683709,16.5953936 C18.0438764,16.4198881 18.0438764,16.1346917 17.8683709,15.9591862 L10.9094659,9.00028126 Z" id="Path"></path>
            </g>
        </g>
    </g>
</svg>