<svg width="17" height="14" viewBox="0 0 17 14" xmlns="http://www.w3.org/2000/svg">
    <path d="M15.608.724H2.275C1.539.724.942 1.3.942 2.009v9.429c0 .71.597 1.286 1.333 1.286h13.333c.736 0 1.334-.576 1.334-1.286V2.009c0-.71-.598-1.285-1.334-1.285zm.445 10.714c0 .236-.2.429-.445.429H2.275a.438.438 0 0 1-.445-.429V2.009c0-.235.2-.428.445-.428h13.333c.245 0 .445.193.445.428v9.429zM6.275 9.617v.214c0 .177-.15.321-.333.321h-2a.329.329 0 0 1-.334-.321v-.214c0-.177.15-.322.334-.322h2c.183 0 .333.145.333.322zm5.333 0v.214c0 .177-.15.321-.333.321H7.497a.329.329 0 0 1-.333-.321v-.214c0-.177.15-.322.333-.322h3.778c.183 0 .333.145.333.322zm2.89-7.179h-2.223a.654.654 0 0 0-.667.643v1.286c0 .356.297.642.667.642h2.222c.37 0 .667-.286.667-.642V3.08a.654.654 0 0 0-.667-.643zm-.223 1.714h-1.778v-.857h1.778v.857zM8.164 8.438H6.608a.329.329 0 0 1-.333-.321V7.045c0-.177.15-.321.333-.321h1.556c.183 0 .333.144.333.321v1.072c0 .176-.15.321-.333.321zm.778-.321V7.045c0-.177.15-.321.333-.321h1.555c.184 0 .334.144.334.321v1.072c0 .176-.15.321-.334.321H9.275a.329.329 0 0 1-.333-.321zm-5.334 0V7.045c0-.177.15-.321.334-.321h1.555c.183 0 .333.144.333.321v1.072c0 .176-.15.321-.333.321H3.942a.329.329 0 0 1-.334-.321zm10.667-1.072v1.072c0 .176-.15.321-.333.321h-2a.329.329 0 0 1-.334-.321V7.045c0-.177.15-.321.334-.321h2c.183 0 .333.144.333.321z" fill="#1C1F2A" fill-rule="nonzero"/>
</svg>
