<svg width="26" height="25" viewBox="0 0 26 25" xmlns="http://www.w3.org/2000/svg">
    <g fill="silver" fill-rule="nonzero">
        <path d="M21.424 3.633A12.308 12.308 0 0 0 12.661 0C5.833 0 .275 5.557.272 12.387a12.365 12.365 0 0 0 1.654 6.194L.17 25l6.567-1.723a12.377 12.377 0 0 0 5.92 1.508h.005c6.827 0 12.385-5.557 12.388-12.388a12.314 12.314 0 0 0-3.625-8.764zm-8.763 19.06h-.004c-1.848 0-3.66-.497-5.241-1.435l-.376-.223-3.897 1.022 1.04-3.8-.245-.39a10.272 10.272 0 0 1-1.574-5.479C2.366 6.711 6.986 2.092 12.665 2.092c2.75.001 5.335 1.074 7.28 3.02a10.235 10.235 0 0 1 3.012 7.284c-.002 5.678-4.62 10.297-10.296 10.297z"/>
        <path d="M18.309 14.981c-.31-.155-1.832-.903-2.115-1.007-.284-.103-.49-.155-.697.155-.206.31-.8 1.007-.98 1.214-.18.206-.361.232-.67.077-.31-.155-1.307-.481-2.49-1.536-.92-.82-1.541-1.834-1.722-2.144-.18-.31-.02-.478.136-.632.14-.139.31-.362.464-.542.155-.181.207-.31.31-.517.103-.206.051-.387-.026-.542-.077-.155-.696-1.678-.954-2.298-.252-.604-.507-.522-.697-.532-.18-.009-.387-.01-.593-.01-.206 0-.542.077-.826.387-.283.31-1.083 1.059-1.083 2.582 0 1.524 1.11 2.996 1.264 3.202.155.207 2.183 3.333 5.288 4.674.738.319 1.315.51 1.764.652.742.236 1.417.202 1.95.123.595-.09 1.831-.75 2.09-1.472.257-.723.257-1.343.18-1.472-.077-.13-.284-.207-.593-.362z"/>
    </g>
</svg>
