<svg width="15" height="17" viewBox="0 0 15 17" xmlns="http://www.w3.org/2000/svg">
    <path d="M9.841 9.43c-.89 0-1.317.497-2.778.497-1.46 0-1.885-.496-2.778-.496a4.169 4.169 0 0 0-4.168 4.167v1.29c0 .822.667 1.489 1.488 1.489h10.916c.821 0 1.488-.667 1.488-1.489v-1.29c0-2.3-1.867-4.167-4.168-4.167zm3.176 5.458a.498.498 0 0 1-.496.496H1.605a.498.498 0 0 1-.496-.496v-1.29a3.177 3.177 0 0 1 3.176-3.175c.607 0 1.212.496 2.778.496 1.563 0 2.17-.496 2.778-.496a3.177 3.177 0 0 1 3.176 3.175v1.29zm-5.954-6.45a3.969 3.969 0 1 0 0-7.937 3.969 3.969 0 0 0 0 7.937zm0-6.946A2.982 2.982 0 0 1 10.04 4.47a2.982 2.982 0 0 1-2.977 2.977A2.982 2.982 0 0 1 4.086 4.47a2.982 2.982 0 0 1 2.977-2.977z" fill="#1C1F2A" fill-rule="nonzero"/>
</svg>
