<svg width="14" height="19" viewBox="0 0 14 19" xmlns="http://www.w3.org/2000/svg">
    <path d="M6.88 0C3.096 0 0 3.096 0 6.88c0 2.752.917 3.555 6.192 11.122.172.23.43.344.688.344a.855.855 0 0 0 .688-.344c5.275-7.567 6.192-8.37 6.192-11.122C13.76 3.096 10.664 0 6.88 0zm0 16.985c-.705-1.01-1.329-1.894-1.88-2.677-3.472-4.92-3.853-5.525-3.853-7.428A5.74 5.74 0 0 1 6.88 1.147a5.74 5.74 0 0 1 5.733 5.733c0 1.903-.381 2.507-3.853 7.428-.556.79-1.185 1.681-1.88 2.677zM9.173 6.593a.86.86 0 1 0 0-1.72.86.86 0 0 0 0 1.72zm.425 1.912A3.56 3.56 0 0 1 6.88 9.747a3.562 3.562 0 0 1-2.718-1.242.572.572 0 1 0-.871.745 4.706 4.706 0 0 0 3.589 1.643c1.39 0 2.697-.599 3.589-1.644a.573.573 0 1 0-.871-.744zM4.587 6.593a.86.86 0 1 0 0-1.72.86.86 0 0 0 0 1.72z" fill="#1C1F2A" fill-rule="nonzero"/>
</svg>
