<svg width="20" height="14" viewBox="0 0 20 14" xmlns="http://www.w3.org/2000/svg">
    <path d="M17 6a2.5 2.5 0 1 0 .001-4.999A2.5 2.5 0 0 0 17 6zm0-4a1.5 1.5 0 1 1 0 3 1.5 1.5 0 0 1 0-3zm-7 5c1.934 0 3.5-1.566 3.5-3.5S11.934 0 10 0a3.498 3.498 0 0 0-3.5 3.5C6.5 5.434 8.066 7 10 7zm0-6c1.378 0 2.5 1.122 2.5 2.5S11.378 6 10 6a2.503 2.503 0 0 1-2.5-2.5C7.5 2.122 8.622 1 10 1zm7.625 6h-1.25c-.475 0-.916.15-1.284.403.293.2.559.435.793.7.154-.066.32-.103.491-.103h1.25C18.381 8 19 8.672 19 9.5c0 .275.225.5.5.5s.5-.225.5-.5C20 8.122 18.934 7 17.625 7zM3 6a2.5 2.5 0 1 0 .001-4.999A2.5 2.5 0 0 0 3 6zm0-4a1.5 1.5 0 1 1 0 3 1.5 1.5 0 0 1 0-3zm9.503 5.625C11.46 7.625 11.2 8 10 8c-1.2 0-1.46-.375-2.503-.375-1.135 0-2.238.506-2.885 1.466A3.581 3.581 0 0 0 4 11.1v1.4A1.5 1.5 0 0 0 5.5 14h9a1.5 1.5 0 0 0 1.5-1.5v-1.4c0-.744-.225-1.434-.613-2.01-.646-.959-1.75-1.465-2.884-1.465zM15 12.5c0 .275-.225.5-.5.5h-9a.501.501 0 0 1-.5-.5v-1.4c0-.519.153-1.022.44-1.45.432-.64 1.2-1.025 2.054-1.025C8.35 8.625 8.656 9 10 9c1.344 0 1.65-.375 2.503-.375.853 0 1.622.384 2.053 1.025.288.428.44.931.44 1.45v1.4H15zM4.91 7.403A2.276 2.276 0 0 0 3.624 7h-1.25C1.065 7 0 8.122 0 9.5c0 .275.225.5.5.5s.5-.225.5-.5C1 8.672 1.619 8 2.375 8h1.25c.172 0 .337.037.49.103.235-.265.504-.5.794-.7z" fill="#1C1F2A" fill-rule="nonzero"/>
</svg>
