<svg width="23" height="25" viewBox="0 0 23 25" xmlns="http://www.w3.org/2000/svg">
    <path d="M21.795 3.22 19.26.686A2.344 2.344 0 0 0 17.604 0H9.2a2.344 2.344 0 0 0-2.344 2.344v2.344H2.95A2.344 2.344 0 0 0 .606 7.03v15.625A2.344 2.344 0 0 0 2.95 25h10.937a2.344 2.344 0 0 0 2.344-2.344v-2.343h3.906a2.344 2.344 0 0 0 2.344-2.344V4.877c0-.622-.247-1.218-.686-1.657zm-4.001-1.634a.775.775 0 0 1 .362.205l2.534 2.534c.1.1.17.225.205.362h-3.101v-3.1zm-3.125 21.07c0 .431-.35.782-.782.782H2.95a.782.782 0 0 1-.781-.782V7.031c0-.43.35-.781.78-.781h3.907v11.719A2.344 2.344 0 0 0 9.2 20.312h5.469v2.344zm6.25-4.687c0 .43-.35.781-.782.781H9.2a.782.782 0 0 1-.781-.781V2.344c0-.431.35-.781.78-.781h7.032v3.515c0 .645.527 1.172 1.172 1.172h3.516v11.719z" fill="silver" fill-rule="nonzero"/>
</svg>
