<svg width="14" height="15" viewBox="0 0 14 15" xmlns="http://www.w3.org/2000/svg">
    <path d="M12.89 1.875H9.845L8.859.562A1.406 1.406 0 0 0 7.734 0H5.391c-.443 0-.86.208-1.125.563L3.28 1.875H.234A.234.234 0 0 0 0 2.109v.47c0 .129.105.233.234.233h.554l.973 10.908c.065.725.672 1.28 1.4 1.28h6.803c.728 0 1.335-.555 1.4-1.28l.973-10.908h.554c.13 0 .234-.104.234-.234V2.11a.234.234 0 0 0-.234-.234zm-7.874-.75A.472.472 0 0 1 5.39.937h2.343c.148.001.287.07.375.188l.563.75H4.453l.563-.75zm5.414 12.51a.466.466 0 0 1-.466.428H3.16a.466.466 0 0 1-.466-.428L1.73 2.813h9.667l-.966 10.822z" fill="#BC3939" fill-rule="nonzero"/>
</svg>
