<svg width="18" height="15" viewBox="0 0 18 15" xmlns="http://www.w3.org/2000/svg">
    <path d="M15.53 1.028c-1.832-1.552-4.573-1.301-6.27.443l-.66.688-.663-.688C6.57.065 3.805-.774 1.671 1.028c-2.112 1.786-2.22 5-.335 6.936l6.49 6.665c.212.217.497.327.77.327.277 0 .548-.108.758-.325l6.504-6.669c1.895-1.934 1.78-5.148-.329-6.934zm-.438 6.191-6.48 6.673-6.505-6.673C.818 5.901.55 3.381 2.367 1.842c1.841-1.565 4.008-.43 4.797.384l1.437 1.473 1.436-1.473c.777-.801 2.96-1.936 4.797-.384 1.81 1.536 1.545 4.056.258 5.377z" fill="#1C1F2A" fill-rule="nonzero"/>
</svg>
