<svg width="17" height="13" viewBox="0 0 17 13" xmlns="http://www.w3.org/2000/svg">
    <path d="M2.441.405h4.124c.206 0 .375.168.375.375v.25a.376.376 0 0 1-.375.375H2.441c-.275 0-.5.225-.5.5v9c0 .275.225.5.5.5h4.124c.206 0 .375.168.375.375v.25a.376.376 0 0 1-.375.375H2.441a1.5 1.5 0 0 1-1.5-1.5v-9a1.5 1.5 0 0 1 1.5-1.5zm8.717.609-.222.222a.375.375 0 0 0 0 .531l4.124 4.106H6.315a.376.376 0 0 0-.375.375v.313c0 .206.169.375.375.375h8.745l-4.12 4.106a.375.375 0 0 0 0 .531l.22.222a.375.375 0 0 0 .532 0l5.14-5.125a.375.375 0 0 0 0-.531l-5.143-5.125a.375.375 0 0 0-.531 0z" fill="#1C1F2A" fill-rule="nonzero"/>
</svg>
