<?xml version="1.0" encoding="UTF-8"?>
<svg width="21px" height="20px" viewBox="0 0 21 20" version="1.1" xmlns="http://www.w3.org/2000/svg" xmlns:xlink="http://www.w3.org/1999/xlink">
    <title>6EEF3422-59D5-40C0-862D-716246452702</title>
    <g id="Desk" stroke="none" stroke-width="1" fill="none" fill-rule="evenodd">
        <g id="Home" transform="translate(-562.000000, -5725.000000)" fill="#1C1F2A" fill-rule="nonzero">
            <g id="Desk/Beneficios-compra" transform="translate(34.000000, 5704.000006)">
                <g id="4544831_business_comerce_delivery_return_shop_icon" transform="translate(528.410256, 21.000000)">
                    <path d="M10.0086612,20 C12.6804144,20 15.1915054,18.9599835 17.0837493,17.0701248 C18.8391329,15.3169541 19.8745116,12.987317 19.9994711,10.5091062 C20.011372,10.2654452 19.8209575,10.0514989 19.576989,10.039613 C19.3330204,10.0277271 19.1188041,10.2179016 19.1069032,10.4615626 C18.9938446,12.7139413 18.0477227,14.835575 16.4470509,16.434229 C14.7273701,18.151742 12.4364459,19.1026143 10.0027108,19.1026143 C7.56897568,19.1026143 5.27805144,18.157685 3.55837064,16.434229 C0.00595045258,12.8862869 0.00595045258,7.10973784 3.55837064,3.5617957 C6.587151,0.536833304 11.2999094,0.0316824128 14.8820819,2.3078329 L13.8764554,3.53802389 L16.7624249,3.24681926 L16.4708527,0.364487706 L15.4533253,1.61250756 C11.5081753,-0.954847563 6.27772747,-0.414038962 2.92762267,2.93184282 C-0.975874223,6.83041912 -0.975874223,13.1656056 2.92762267,17.0641819 C4.82581704,18.9599835 7.33690803,20 10.0086612,20 Z" id="Path"></path>
                    <path d="M14.7273701,7.94769403 C14.7273701,7.94175108 14.7273701,7.93580812 14.7214197,7.93580812 C14.7214197,7.92392222 14.7154692,7.91797927 14.7154692,7.90609337 C14.7154692,7.90015041 14.7095188,7.88826451 14.7095188,7.88232156 C14.7095188,7.87637861 14.7035683,7.87043566 14.7035683,7.8644927 C14.6916674,7.83477795 14.6797665,7.81100614 14.6619152,7.78723433 C14.6619152,7.78723433 14.6619152,7.78723433 14.6619152,7.78723433 L12.7696712,5.01187591 C12.6863649,4.88707392 12.5495045,4.8157585 12.4007432,4.8157585 L7.60467839,4.8157585 C7.45591708,4.8157585 7.31905667,4.88707392 7.23575033,5.01187591 L5.34350641,7.78129138 C5.34350641,7.78129138 5.34350641,7.78129138 5.34350641,7.78129138 C5.32565506,7.80506319 5.31375415,7.83477795 5.30185325,7.85854975 C5.30185325,7.8644927 5.29590279,7.87043566 5.29590279,7.87637861 C5.28995234,7.88232156 5.28995234,7.89420746 5.28995234,7.90015041 C5.28995234,7.91203632 5.28400189,7.91797927 5.28400189,7.92986517 C5.28400189,7.93580812 5.28400189,7.94175108 5.27805144,7.94175108 C5.27210098,7.97146583 5.26615053,8.00118059 5.26615053,8.03089535 C5.26615053,8.03089535 5.26615053,8.03089535 5.26615053,8.03089535 L5.26615053,14.7404878 C5.26615053,14.9841488 5.46846592,15.1862092 5.71243447,15.1862092 L14.2870366,15.1862092 C14.5310052,15.1862092 14.7333206,14.9841488 14.7333206,14.7404878 L14.7333206,8.0368383 C14.7333206,8.0368383 14.7333206,8.0368383 14.7333206,8.0368383 C14.7333206,8.00118059 14.7333206,7.97146583 14.7273701,7.94769403 Z M7.8426965,5.70720125 L12.1627251,5.70720125 L13.4420724,7.58517398 L6.55739874,7.58517398 L7.8426965,5.70720125 Z M13.8407527,14.3007094 L6.16466887,14.3007094 L6.16466887,8.48255968 L13.8467031,8.48255968 L13.8467031,14.3007094 L13.8407527,14.3007094 Z" id="Shape"></path>
                </g>
            </g>
        </g>
    </g>
</svg>