<?xml version="1.0" encoding="UTF-8"?>
<svg width="24px" height="20px" viewBox="0 0 24 20" version="1.1" xmlns="http://www.w3.org/2000/svg" xmlns:xlink="http://www.w3.org/1999/xlink">
    <title>59062026-B3D0-4908-B77C-F4A0CE0F2E51</title>
    <g id="Desk" stroke="none" stroke-width="1" fill="none" fill-rule="evenodd">
        <g id="Home" transform="translate(-306.000000, -5725.000000)" fill="#1C1F2A" fill-rule="nonzero">
            <g id="Desk/Beneficios-compra" transform="translate(34.000000, 5704.000006)">
                <g id="Group-14" transform="translate(272.333333, 15.000000)">
                    <g id="1291768_delivery_fast_fast-delivery_instant_quick_icon" transform="translate(0.000000, 6.000000)">
                        <path d="M15.3846154,19.6153846 C15.3846154,19.8276923 15.2123077,20 15,20 L14.2307692,20 C14.0184615,20 13.8461538,19.8276923 13.8461538,19.6153846 C13.8461538,19.4030769 14.0184615,19.2307692 14.2307692,19.2307692 L15,19.2307692 C15.2123077,19.2307692 15.3846154,19.4030769 15.3846154,19.6153846 M23.0769231,19.6153846 C23.0769231,19.8276923 22.9046154,20 22.6923077,20 L16.5384615,20 C16.3261538,20 16.1538462,19.8276923 16.1538462,19.6153846 C16.1538462,19.4030769 16.3261538,19.2307692 16.5384615,19.2307692 L22.6923077,19.2307692 C22.9046154,19.2307692 23.0769231,19.4030769 23.0769231,19.6153846 M12.3076923,19.6153846 C12.3076923,19.8276923 12.1353846,20 11.9230769,20 L8.07692308,20 C7.86461538,20 7.69230769,19.8276923 7.69230769,19.6153846 C7.69230769,19.4030769 7.86461538,19.2307692 8.07692308,19.2307692 L11.9230769,19.2307692 C12.1353846,19.2307692 12.3076923,19.4030769 12.3076923,19.6153846 M6.15384615,19.6153846 C6.15384615,19.8276923 5.98153846,20 5.76923077,20 L0.384615385,20 C0.172307692,20 0,19.8276923 0,19.6153846 C0,19.4030769 0.172307692,19.2307692 0.384615385,19.2307692 L5.76923077,19.2307692 C5.98153846,19.2307692 6.15384615,19.4030769 6.15384615,19.6153846 M0.769230769,11.9230769 C0.769230769,11.7107692 0.941538462,11.5384615 1.15384615,11.5384615 L2.24615385,11.5384615 L2.08346154,10.4411538 C2.05230769,10.2311538 2.19730769,10.0353846 2.40730769,10.0042308 C2.61884615,9.97461538 2.81346154,10.1180769 2.84461538,10.3280769 L3.02423077,11.5384615 L5.76923077,11.5384615 C5.98153846,11.5384615 6.15384615,11.7107692 6.15384615,11.9230769 C6.15384615,12.1353846 5.98153846,12.3076923 5.76923077,12.3076923 L1.15384615,12.3076923 C0.941538462,12.3076923 0.769230769,12.1353846 0.769230769,11.9230769 M1.15384615,8.46153846 L1.75346154,8.46153846 L1.59076923,7.36423077 C1.55961538,7.15423077 1.70461538,6.95846154 1.91461538,6.92730769 C2.12615385,6.89807692 2.32076923,7.04115385 2.35153846,7.25115385 L2.53153846,8.46153846 L5.76923077,8.46153846 C5.98153846,8.46153846 6.15384615,8.63384615 6.15384615,8.84615385 C6.15384615,9.05846154 5.98153846,9.23076923 5.76923077,9.23076923 L1.15384615,9.23076923 C0.941538462,9.23076923 0.769230769,9.05846154 0.769230769,8.84615385 C0.769230769,8.63384615 0.941538462,8.46153846 1.15384615,8.46153846 M5.76923077,16.1538462 C5.55730769,16.1538462 5.38461538,15.9811538 5.38461538,15.7692308 C5.38461538,15.5573077 5.55730769,15.3846154 5.76923077,15.3846154 C5.98115385,15.3846154 6.15384615,15.5573077 6.15384615,15.7692308 C6.15384615,15.9811538 5.98115385,16.1538462 5.76923077,16.1538462 M5.76923077,14.6153846 C5.13307692,14.6153846 4.61538462,15.1330769 4.61538462,15.7692308 C4.61538462,16.4053846 5.13307692,16.9230769 5.76923077,16.9230769 C6.40538462,16.9230769 6.92307692,16.4053846 6.92307692,15.7692308 C6.92307692,15.1330769 6.40538462,14.6153846 5.76923077,14.6153846 M18.8461538,16.1538462 C18.6342308,16.1538462 18.4615385,15.9811538 18.4615385,15.7692308 C18.4615385,15.5573077 18.6342308,15.3846154 18.8461538,15.3846154 C19.0580769,15.3846154 19.2307692,15.5573077 19.2307692,15.7692308 C19.2307692,15.9811538 19.0580769,16.1538462 18.8461538,16.1538462 M18.8461538,14.6153846 C18.21,14.6153846 17.6923077,15.1330769 17.6923077,15.7692308 C17.6923077,16.4053846 18.21,16.9230769 18.8461538,16.9230769 C19.4823077,16.9230769 20,16.4053846 20,15.7692308 C20,15.1330769 19.4823077,14.6153846 18.8461538,14.6153846 M18.8461538,17.6923077 C17.7857692,17.6923077 16.9230769,16.8296154 16.9230769,15.7692308 C16.9230769,14.7088462 17.7857692,13.8461538 18.8461538,13.8461538 C19.9065385,13.8461538 20.7692308,14.7088462 20.7692308,15.7692308 C20.7692308,16.8296154 19.9065385,17.6923077 18.8461538,17.6923077 M22.5796154,9.72807692 L21.5253846,8.67384615 L21.1538462,4.23076923 C21.1538462,3.17038462 20.2911538,2.30769231 19.2307692,2.30769231 L16.5384615,2.30769231 C16.3261538,2.30769231 16.1538462,2.48 16.1538462,2.69230769 C16.1538462,2.90461538 16.3261538,3.07692308 16.5384615,3.07692308 L19.2307692,3.07692308 C19.8561538,3.07692308 20.3846154,3.60538462 20.3857692,4.26269231 L20.7357692,8.46153846 L19.4684615,8.46153846 L19.9596154,7.47961538 C20.0546154,7.28961538 19.9773077,7.05884615 19.7873077,6.96346154 C19.5969231,6.86846154 19.3665385,6.94576923 19.2711538,7.13576923 L18.6084615,8.46153846 L16.5384615,8.46153846 C16.3261538,8.46153846 16.1538462,8.63384615 16.1538462,8.84615385 C16.1538462,9.05846154 16.3261538,9.23076923 16.5384615,9.23076923 L20.9946154,9.23076923 L22.0357692,10.2719231 C22.255,10.4911538 22.3069231,10.9953846 22.3076923,11.1538462 L22.3076923,15.3846154 L21.5076923,15.3846154 C21.3203846,14.0819231 20.2,13.0769231 18.8461538,13.0769231 C17.3615385,13.0769231 16.1538462,14.2846154 16.1538462,15.7692308 C16.1538462,17.2538462 17.3615385,18.4615385 18.8461538,18.4615385 C20.2,18.4615385 21.3203846,17.4565385 21.5076923,16.1538462 L22.6923077,16.1538462 C22.9046154,16.1538462 23.0769231,15.9815385 23.0769231,15.7692308 L23.0769231,11.1538462 C23.0769231,11.0588462 23.0630769,10.2111538 22.5796154,9.72807692 M5.76923077,17.6923077 C4.70884615,17.6923077 3.84615385,16.8296154 3.84615385,15.7692308 C3.84615385,14.7088462 4.70884615,13.8461538 5.76923077,13.8461538 C6.82961538,13.8461538 7.69230769,14.7088462 7.69230769,15.7692308 C7.69230769,16.8296154 6.82961538,17.6923077 5.76923077,17.6923077 M15,0 L2.69230769,0 C1.63192308,0 0.769230769,0.862692308 0.769230769,1.92307692 C0.769230769,1.94230769 0.770769231,1.96115385 0.773461538,1.98 L1.28423077,5.38461538 L0.384615385,5.38461538 C0.172307692,5.38461538 0,5.55692308 0,5.76923077 C0,5.98153846 0.172307692,6.15384615 0.384615385,6.15384615 L5.76923077,6.15384615 C5.98153846,6.15384615 6.15384615,5.98153846 6.15384615,5.76923077 C6.15384615,5.55692308 5.98153846,5.38461538 5.76923077,5.38461538 L2.06192308,5.38461538 L1.53884615,1.89653846 C1.55307692,1.27269231 2.065,0.769230769 2.69230769,0.769230769 L14.6153846,0.769230769 L14.6153846,15.3846154 L8.43076923,15.3846154 C8.24346154,14.0819231 7.12307692,13.0769231 5.76923077,13.0769231 C4.28461538,13.0769231 3.07692308,14.2846154 3.07692308,15.7692308 C3.07692308,17.2538462 4.28461538,18.4615385 5.76923077,18.4615385 C7.12307692,18.4615385 8.24346154,17.4565385 8.43076923,16.1538462 L15,16.1538462 C15.2123077,16.1538462 15.3846154,15.9815385 15.3846154,15.7692308 L15.3846154,0.384615385 C15.3846154,0.172307692 15.2123077,0 15,0" id="truck"></path>
                    </g>
                </g>
            </g>
        </g>
    </g>
</svg>