<?xml version="1.0" encoding="UTF-8"?>
<svg width="45px" height="40px" viewBox="0 0 45 40" version="1.1" xmlns="http://www.w3.org/2000/svg" xmlns:xlink="http://www.w3.org/1999/xlink">
    <title>86CA298B-B7A2-423A-B7DC-196C53CC7115</title>
    <g id="Desk" stroke="none" stroke-width="1" fill="none" fill-rule="evenodd">
        <g id="Home" transform="translate(-1235.000000, -5786.000000)">
            <g id="botones-fijos-footer" transform="translate(1235.000000, 5726.000000)">
                <g id="Group-2" transform="translate(0.000000, 60.000000)">
                    <path d="M20,0 L45,0 L45,0 L45,40 L20,40 C8.954305,40 1.3527075e-15,31.045695 0,20 C-1.3527075e-15,8.954305 8.954305,2.02906125e-15 20,0 Z" id="Rectangle" fill="#4B739C"></path>
                    <g id="Group" transform="translate(10.000000, 9.000000)" fill="#FFFFFF" fill-rule="nonzero">
                        <path d="M22.2222222,6.94444444 L18.0555556,6.94444444 L18.0555556,2.77777778 C18.0555556,1.24565972 16.8098958,0 15.2777778,0 L2.77777778,0 C1.24565972,0 0,1.24565972 0,2.77777778 L0,9.72222222 C0,11.2543403 1.24565972,12.5 2.77777778,12.5 L4.16666667,12.5 L4.16666667,14.7569444 C4.16666667,15.0651042 4.41840278,15.2777778 4.6875,15.2777778 C4.79166667,15.2777778 4.90017361,15.2473958 4.99565972,15.1736111 L8.33333333,13.2855903 L8.33333333,16.6666667 C8.33333333,18.1987847 9.57899306,19.4444444 11.1111111,19.4444444 L15.2777778,19.4444444 L20.0043403,22.1180556 C20.0998264,22.1875 20.2083333,22.2222222 20.3125,22.2222222 C20.5815972,22.2222222 20.8333333,22.0095486 20.8333333,21.7013889 L20.8333333,19.4444444 L22.2222222,19.4444444 C23.7543403,19.4444444 25,18.1987847 25,16.6666667 L25,9.72222222 C25,8.19010417 23.7543403,6.94444444 22.2222222,6.94444444 Z M2.77777778,11.1111111 C2.01388889,11.1111111 1.38888889,10.4861111 1.38888889,9.72222222 L1.38888889,2.77777778 C1.38888889,2.01388889 2.01388889,1.38888889 2.77777778,1.38888889 L15.2777778,1.38888889 C16.0416667,1.38888889 16.6666667,2.01388889 16.6666667,2.77777778 L16.6666667,9.72222222 C16.6666667,10.4861111 16.0416667,11.1111111 15.2777778,11.1111111 L9.35763889,11.1111111 L9.04079861,11.2934028 L5.55555556,13.2638889 L5.55555556,11.1111111 L2.77777778,11.1111111 Z M23.6111111,16.6666667 C23.6111111,17.4305556 22.9861111,18.0555556 22.2222222,18.0555556 L19.4444444,18.0555556 L19.4444444,20.2083333 L15.9635417,18.2378472 L15.6467014,18.0555556 L11.1111111,18.0555556 C10.3472222,18.0555556 9.72222222,17.4305556 9.72222222,16.6666667 L9.72222222,12.5 L15.2777778,12.5 C16.8098958,12.5 18.0555556,11.2543403 18.0555556,9.72222222 L18.0555556,8.33333333 L22.2222222,8.33333333 C22.9861111,8.33333333 23.6111111,8.95833333 23.6111111,9.72222222 L23.6111111,16.6666667 Z" id="Shape"></path>
                    </g>
                </g>
            </g>
        </g>
    </g>
</svg>