<?xml version="1.0" encoding="UTF-8"?>
<svg width="30px" height="30px" viewBox="0 0 30 30" version="1.1" xmlns="http://www.w3.org/2000/svg" xmlns:xlink="http://www.w3.org/1999/xlink">
    <title>DDD6099A-8E39-44FE-83F0-2D1AFDD49BF8</title>
    <g id="Mobile" stroke="none" stroke-width="1" fill="none" fill-rule="evenodd">
        <g id="Mobile-home-footer-abierto" transform="translate(-285.000000, -5518.000000)">
            <g id="botones-fijos-footer" transform="translate(285.000000, 5463.000000)">
                <g id="Group-2" transform="translate(0.000000, 55.000000)">
                    <circle id="Oval" fill="#4B739C" cx="15" cy="15" r="15"></circle>
                    <g id="Group" transform="translate(6.000000, 7.857143)" fill="#FFFFFF" fill-rule="nonzero">
                        <path d="M16.7619048,5.23809524 L13.6190476,5.23809524 L13.6190476,2.0952381 C13.6190476,0.939583333 12.6794643,0 11.5238095,0 L2.0952381,0 C0.939583333,0 0,0.939583333 0,2.0952381 L0,7.33333333 C0,8.4889881 0.939583333,9.42857143 2.0952381,9.42857143 L3.14285714,9.42857143 L3.14285714,11.1309524 C3.14285714,11.3633929 3.3327381,11.5238095 3.53571429,11.5238095 C3.61428571,11.5238095 3.69613095,11.5008929 3.76815476,11.4452381 L6.28571429,10.021131 L6.28571429,12.5714286 C6.28571429,13.7270833 7.22529762,14.6666667 8.38095238,14.6666667 L11.5238095,14.6666667 L15.0889881,16.6833333 C15.1610119,16.7357143 15.2428571,16.7619048 15.3214286,16.7619048 C15.5244048,16.7619048 15.7142857,16.6014881 15.7142857,16.3690476 L15.7142857,14.6666667 L16.7619048,14.6666667 C17.9175595,14.6666667 18.8571429,13.7270833 18.8571429,12.5714286 L18.8571429,7.33333333 C18.8571429,6.17767857 17.9175595,5.23809524 16.7619048,5.23809524 Z M2.0952381,8.38095238 C1.51904762,8.38095238 1.04761905,7.90952381 1.04761905,7.33333333 L1.04761905,2.0952381 C1.04761905,1.51904762 1.51904762,1.04761905 2.0952381,1.04761905 L11.5238095,1.04761905 C12.1,1.04761905 12.5714286,1.51904762 12.5714286,2.0952381 L12.5714286,7.33333333 C12.5714286,7.90952381 12.1,8.38095238 11.5238095,8.38095238 L7.05833333,8.38095238 L6.81934524,8.51845238 L4.19047619,10.0047619 L4.19047619,8.38095238 L2.0952381,8.38095238 Z M17.8095238,12.5714286 C17.8095238,13.147619 17.3380952,13.6190476 16.7619048,13.6190476 L14.6666667,13.6190476 L14.6666667,15.2428571 L12.0410714,13.7565476 L11.8020833,13.6190476 L8.38095238,13.6190476 C7.8047619,13.6190476 7.33333333,13.147619 7.33333333,12.5714286 L7.33333333,9.42857143 L11.5238095,9.42857143 C12.6794643,9.42857143 13.6190476,8.4889881 13.6190476,7.33333333 L13.6190476,6.28571429 L16.7619048,6.28571429 C17.3380952,6.28571429 17.8095238,6.75714286 17.8095238,7.33333333 L17.8095238,12.5714286 Z" id="Shape"></path>
                    </g>
                </g>
            </g>
        </g>
    </g>
</svg>