<svg width="200" height="21" viewBox="0 0 200 21" xmlns="http://www.w3.org/2000/svg" xmlns:xlink="http://www.w3.org/1999/xlink">
    <defs>
        <path id="97cgcwloca" d="M0 0h200v20.85H0z"/>
    </defs>
    <g fill="none" fill-rule="evenodd">
        <mask id="p3zj1wwteb" fill="#fff">
            <use xlink:href="#97cgcwloca"/>
        </mask>
        <path d="M183.437 3.182c1.29-1.63 3.152-2.439 5.568-2.439 2.464 0 4.343.83 5.637 2.498 1.295 1.665 1.946 4.059 1.946 7.188 0 3.208-.66 5.625-1.972 7.25-1.317 1.62-3.11 2.431-5.373 2.431-2.583 0-4.517-.812-5.806-2.432-1.286-1.624-1.934-4.05-1.934-7.28 0-3.184.648-5.593 1.934-7.216zm-2.264 14.778c2.05 1.924 4.67 2.89 7.864 2.89 3.283 0 5.929-.966 7.943-2.89 2.01-1.93 3.02-4.451 3.02-7.561 0-3.215-1.056-5.751-3.155-7.613C194.743.927 192.125 0 188.99 0c-3.103 0-5.695.94-7.77 2.819-2.078 1.873-3.115 4.365-3.115 7.473 0 3.181 1.026 5.739 3.069 7.668zM149.58.371h-6.127v.681h.553c1.015 0 1.675.092 1.976.265.301.182.5.5.596.967.089.466.138 1.498.138 3.101v8.751c0 1.66-.057 2.795-.181 3.408-.115.613-.446 1.13-.986 1.55-.536.422-1.237.654-2.096.705v.68h7.191v-.68c-.928-.057-1.65-.31-2.161-.747-.516-.44-.824-.955-.92-1.537-.099-.584-.15-1.68-.15-3.292V2.448l8.024 18.03h.7l7.963-18.03v12.798c0 1.677-.049 2.753-.147 3.211-.088.46-.3.797-.632 1.017-.335.218-.925.325-1.775.325h-.713v.68h9.611v-.68h-.889c-.907 0-1.525-.12-1.844-.355-.322-.238-.523-.603-.602-1.091-.079-.49-.119-1.526-.119-3.107v-9.86c0-1.672.054-2.731.157-3.174.102-.446.305-.752.614-.916.309-.16.959-.244 1.944-.244h.74v-.68h-6.17l-7.328 16.637L149.581.37zm-22.937.681c1.014 0 1.678.092 1.988.265.304.182.5.5.591.967.09.466.131 1.498.131 3.101v9.86c0 1.678-.041 2.754-.13 3.212-.091.46-.303.797-.632 1.017-.332.218-.926.325-1.785.325h-.596v.68h9.2v-.68h-.597c-.909 0-1.524-.12-1.848-.355-.32-.238-.516-.603-.59-1.091-.077-.49-.112-1.526-.112-3.107v-9.86c0-1.672.052-2.731.153-3.174.106-.446.31-.752.618-.916.302-.16.954-.244 1.944-.244h.432v-.68h-9.2v.68h.433zm-23.16-.148c.473-.039.893-.057 1.26-.057 2.37 0 3.913.42 4.619 1.273s1.061 1.986 1.061 3.393c0 .815-.105 1.499-.309 2.052-.213.553-.497 1-.855 1.344-.363.339-.835.595-1.419.776-.584.178-1.27.285-2.06.327-.79.039-1.557.069-2.298.09V.903zm15.2 18.895c-1.187-.042-2.215-.375-3.084-1.012-.871-.63-2.07-1.97-3.59-4.014-1.869-2.522-3.224-3.988-4.066-4.393 1.883-.225 3.304-.802 4.273-1.736.97-.928 1.453-2.052 1.453-3.363 0-1.13-.369-2.1-1.114-2.908-.738-.81-1.711-1.395-2.911-1.752-1.201-.357-2.76-.532-4.68-.532-1.126 0-2.65.045-4.568.134L97.52.371v.681h.343c1.017 0 1.68.092 1.986.265.31.182.506.5.594.967.087.466.135 1.498.135 3.101v9.86c0 1.678-.048 2.754-.135 3.212-.088.46-.3.797-.63 1.017-.332.218-.927.325-1.79.325h-.65v.68h9.625v-.68h-.962c-.912 0-1.524-.12-1.85-.355-.32-.238-.519-.603-.59-1.091-.076-.49-.112-1.526-.112-3.107v-4.464h.8c.544 0 .942.092 1.199.27.26.188.729.697 1.41 1.532a41.73 41.73 0 0 1 1.972 2.614c1.98 2.852 3.445 4.609 4.404 5.28h5.415v-.68zM79.814.964c.358-.04.871-.06 1.546-.06 1.828 0 3.152.39 3.964 1.165.821.777 1.225 1.995 1.225 3.655 0 1.089-.236 2.001-.71 2.745-.476.737-1.07 1.228-1.781 1.46-.71.232-1.645.35-2.8.35h-1.444V.965zm2.213 10.056c2.304 0 3.913-.217 4.827-.654.916-.437 1.616-1.073 2.105-1.915.49-.839.733-1.805.733-2.906 0-1.266-.356-2.31-1.074-3.142-.717-.83-1.635-1.41-2.759-1.734-1.119-.33-2.722-.49-4.797-.49-1.128 0-2.697.032-4.718.103l-2.522.09v.68h.375c1.018 0 1.68.092 1.984.265.308.182.507.5.596.967.089.466.133 1.498.133 3.101v9.86c0 1.678-.044 2.754-.133 3.212-.09.46-.3.797-.631 1.017-.333.218-.927.325-1.789.325h-.535v.68h9.213v-.68h-.666c-.903 0-1.515-.12-1.838-.355-.329-.238-.528-.603-.602-1.091-.073-.49-.115-1.526-.115-3.107V11.02h2.213zM47.306 2.358c.39-.621.807-.996 1.255-1.118.443-.125 1.312-.188 2.607-.188h2.983v14.194c0 1.677-.048 2.753-.14 3.211-.095.46-.309.797-.639 1.017-.33.218-.925.325-1.787.325h-1.038v.68h10.024v-.68h-.977c-.9 0-1.512-.12-1.84-.355-.326-.238-.527-.603-.596-1.1-.078-.493-.114-1.528-.114-3.098V1.052h3.233c1.096 0 1.872.07 2.327.2.455.133.881.496 1.28 1.082.39.592.703.839.93 2.165h.638L65.35.371H45.831L45.728 4.5h.681c.207-1.276.507-1.52.897-2.141zM25.71 12.397l3.546-8.567 3.558 8.567H25.71zm8.902 4.392c.453 1.08.68 1.725.68 1.942 0 .428-.17.708-.51.853-.341.143-.999.215-1.968.215v.68h7.905v-.68c-.701-.066-1.228-.239-1.576-.512-.353-.268-.633-.645-.841-1.118l-.918-2.106L30.663.09h-.576l-5.844 13.956c-.427.998-.664 1.572-.713 1.718-.612 1.573-1.139 2.605-1.573 3.096-.434.488-1.097.8-1.984.94v.68h5.975v-.68c-.644 0-1.168-.156-1.582-.467-.409-.313-.613-.768-.613-1.372 0-.561.387-1.769 1.157-3.621l.518-1.276h7.639l1.545 3.726zM5.992.964c.357-.04.871-.06 1.542-.06 1.831 0 3.152.39 3.968 1.165.813.777 1.224 1.995 1.224 3.655 0 1.089-.238 2.001-.714 2.745-.474.737-1.068 1.228-1.78 1.46-.712.232-1.644.35-2.802.35H5.992V.965zM8.2 11.02c2.304 0 3.913-.217 4.829-.654.914-.437 1.618-1.073 2.105-1.915.492-.839.736-1.805.736-2.906 0-1.266-.358-2.31-1.075-3.142-.718-.83-1.638-1.41-2.759-1.734-1.124-.33-2.72-.49-4.798-.49-1.129 0-2.7.032-4.718.103L0 .372v.68h.37c1.017 0 1.679.092 1.988.265.306.182.505.5.593.967.09.466.134 1.498.134 3.101v9.86c0 1.678-.045 2.754-.134 3.212-.088.46-.299.797-.63 1.017-.331.218-.928.325-1.787.325H0v.68h9.21v-.68h-.667c-.9 0-1.514-.12-1.839-.355-.327-.238-.527-.603-.6-1.091-.077-.49-.112-1.526-.112-3.107V11.02H8.2z" fill="#1C1F2A" mask="url(#p3zj1wwteb)"/>
    </g>
</svg>
