<?xml version="1.0" encoding="UTF-8"?>
<svg width="15px" height="16px" viewBox="0 0 15 16" version="1.1" xmlns="http://www.w3.org/2000/svg" xmlns:xlink="http://www.w3.org/1999/xlink">
    <title>57277243-F53D-4C0D-9BD6-357EB216AC0A</title>
    <g id="Desk" stroke="none" stroke-width="1" fill="none" fill-rule="evenodd">
        <g id="Int-prod" transform="translate(-835.000000, -615.000000)" fill="#C0C0C0" fill-rule="nonzero">
            <g id="Group-15" transform="translate(831.000000, 561.000000)">
                <g id="Group" transform="translate(4.000000, 54.000000)">
                    <path d="M14.078125,2.61484573 L8.078125,0.114845726 C7.70900078,-0.0382819087 7.29412422,-0.0382819087 6.925,0.114845726 L0.925,2.61484573 C0.365625,2.84609573 0,3.39297073 0,3.99922073 C0,10.2023457 3.578125,14.4898457 6.921875,15.8835957 C7.290625,16.0367207 7.70625,16.0367207 8.075,15.8835957 C10.753125,14.7679707 15,10.9148457 15,3.99922073 C15,3.39297073 14.634375,2.84609573 14.078125,2.61484573 Z M7.69375,14.9617207 C7.56875,15.0117207 7.43125,15.0117207 7.309375,14.9617207 C4.25,13.7492207 1,9.49922073 1,3.99922073 C1,3.79609573 1.121875,3.61484573 1.30625,3.53672073 L7.30625,1.03672073 C7.428125,0.986720726 7.56875,0.986720726 7.690625,1.03672073 L13.690625,3.53672073 C13.878125,3.61484573 14,3.79609573 13.9969337,3.99922073 C14,9.49922073 10.75,13.7492207 7.69375,14.9617207 L7.69375,14.9617207 Z M11.95,4.80547073 C11.803125,4.65859573 11.565625,4.65859573 11.41875,4.80234573 L6.3125,9.86797073 L4.15625,7.69609573 C4.009375,7.54922073 3.771875,7.54922073 3.625,7.69297073 L3.359375,7.95859573 C3.2125,8.10547073 3.2125,8.34297073 3.35625,8.48984573 L6.040625,11.1960957 C6.1875,11.3429707 6.425,11.3429707 6.571875,11.1992207 L12.2125,5.60547073 C12.359375,5.45859573 12.359375,5.22109573 12.215625,5.07422073 L11.95,4.80547073 Z" id="Shape"></path>
                </g>
            </g>
        </g>
    </g>
</svg>