<svg width="14" height="15" viewBox="0 0 14 15" xmlns="http://www.w3.org/2000/svg">
    <path d="M13.487 1.665 12.462.639a1.744 1.744 0 0 0-1.238-.513c-.448 0-.895.171-1.237.513L.35 10.274l-.347 3.123a.656.656 0 0 0 .724.725l3.121-.345 9.639-9.638a1.75 1.75 0 0 0 0-2.474zM3.447 12.942l-2.543.282.283-2.548L8.403 3.46l2.263 2.264-7.218 7.218zM12.87 3.52l-1.584 1.584-2.263-2.263 1.584-1.584A.87.87 0 0 1 11.224 1a.87.87 0 0 1 .62.257l1.025 1.025a.876.876 0 0 1 0 1.238z" fill="#AAA" fill-rule="nonzero"/>
</svg>
