<?xml version="1.0" encoding="UTF-8"?>
<svg width="22px" height="17px" viewBox="0 0 22 17" version="1.1" xmlns="http://www.w3.org/2000/svg" xmlns:xlink="http://www.w3.org/1999/xlink">
    <title>B97CD11C-2BB9-442A-87AC-F9A5B639C55D</title>
    <g id="Desk" stroke="none" stroke-width="1" fill="none" fill-rule="evenodd">
        <g id="Int-prod" transform="translate(-831.000000, -562.000000)" fill="#C0C0C0" fill-rule="nonzero">
            <g id="Group-15" transform="translate(831.000000, 561.000000)">
                <g id="Group" transform="translate(0.000000, 1.000000)">
                    <path d="M21.725,12.1 L20.9,12.1 L20.9,8.3840625 C20.9,7.8065625 20.66625,7.239375 20.25375,6.8303125 L17.3696875,3.94625 C16.9640625,3.53375 16.396875,3.3 15.8159375,3.3 L14.3,3.3 L14.3,1.601875 C14.3,0.7184375 13.536875,-2.44249065e-16 12.601875,-2.44249065e-16 L1.698125,-2.44249065e-16 C0.763125,-2.44249065e-16 0,0.7184375 0,1.601875 L0,11.598125 C0,12.4815625 0.763125,13.2 1.698125,13.2 L2.255,13.2 C2.2171875,13.37875 2.2,13.5609375 2.2,13.75 C2.2,15.269375 3.430625,16.5 4.95,16.5 C6.469375,16.5 7.7,15.269375 7.7,13.75 C7.7,13.5609375 7.679375,13.37875 7.645,13.2 L14.355,13.2 C14.3171875,13.37875 14.3,13.5609375 14.3,13.75 C14.3,15.269375 15.530625,16.5 17.05,16.5 C18.569375,16.5 19.8,15.269375 19.8,13.75 C19.8,13.5609375 19.779375,13.37875 19.745,13.2 L21.725,13.2 C21.87625,13.2 22,13.07625 22,12.925 L22,12.375 C22,12.22375 21.87625,12.1 21.725,12.1 Z M15.8159375,4.4 C16.1046875,4.4 16.39,4.516875 16.5928125,4.723125 L19.476875,7.6071875 C19.504375,7.6346875 19.5146875,7.6725 19.53875,7.7034375 L14.3,7.7034375 L14.3,4.4034375 L15.8159375,4.4034375 L15.8159375,4.4 Z M4.95,15.4 C4.0390625,15.4 3.3,14.6609375 3.3,13.75 C3.3,12.8390625 4.0390625,12.1 4.95,12.1 C5.8609375,12.1 6.6,12.8390625 6.6,13.75 C6.6,14.6609375 5.8609375,15.4 4.95,15.4 Z M7.13625,12.1 C6.634375,11.4365625 5.84375,11 4.95,11 C4.05625,11 3.265625,11.4365625 2.76375,12.1 L1.698125,12.1 C1.368125,12.1 1.1,11.8765625 1.1,11.598125 L1.1,1.601875 C1.1,1.3234375 1.368125,1.1 1.698125,1.1 L12.601875,1.1 C12.931875,1.1 13.2,1.3234375 13.2,1.601875 L13.2,12.1 L7.13625,12.1 Z M17.05,15.4 C16.1390625,15.4 15.4,14.6609375 15.4,13.75 C15.4,12.8390625 16.1390625,12.1 17.05,12.1 C17.9609375,12.1 18.7,12.8390625 18.7,13.75 C18.7,14.6609375 17.9609375,15.4 17.05,15.4 Z M17.05,11 C16.1528125,11 15.365625,11.4365625 14.86375,12.1 L14.3,12.1 L14.3,8.8 L19.8,8.8 L19.8,12.1 L19.23625,12.1 C18.734375,11.4365625 17.9471875,11 17.05,11 Z" id="Shape"></path>
                </g>
            </g>
        </g>
    </g>
</svg>