<?xml version="1.0" encoding="UTF-8"?>
<svg width="20px" height="18px" viewBox="0 0 20 18" version="1.1" xmlns="http://www.w3.org/2000/svg" xmlns:xlink="http://www.w3.org/1999/xlink">
    <title>6D227F5C-AEA1-4D18-A3E2-20D9E8FAB9A4</title>
    <g id="Desk" stroke="none" stroke-width="1" fill="none" fill-rule="evenodd">
        <g id="Int-prod" transform="translate(-1223.000000, -131.000000)" fill="#fff" fill-rule="nonzero">
            <g id="Group" transform="translate(1223.000000, 131.000000)">
                <path d="M18.057287,1.1957216 C15.9284082,-0.609005559 12.7409492,-0.31753242 10.7683184,1.71074804 L9.99918767,2.51064969 L9.2292757,1.71074804 C7.63945242,0.0756264223 4.42465006,-0.900090586 1.94265076,1.1957216 C-0.513176995,3.27174001 -0.638175386,7.00927175 1.55398389,9.26032928 L9.10076173,17.0109532 C9.34646169,17.2632269 9.67848867,17.3913043 9.99489085,17.3913043 C10.3171523,17.3913043 10.6327733,17.2651675 10.8769107,17.012855 L18.4393134,9.2583499 C20.6431913,7.00927175 20.5103805,3.27174001 18.057287,1.1957216 Z M17.5494811,8.39483647 L10.0144218,16.1532227 L2.45045673,8.39483647 C0.951647896,6.86178867 0.63915192,3.93153274 2.7531872,2.14194199 C4.89339402,0.322466525 7.41289284,1.64244009 8.33084977,2.58827237 L10.0007501,4.30101666 L11.6706505,2.58827237 C12.5741545,1.65680028 15.1131843,0.337214833 17.2487037,2.14194199 C19.3541454,3.9276516 19.0455556,6.85790753 17.5494811,8.39483647 Z" id="Shape"></path>
            </g>
        </g>
    </g>
</svg>