<svg width="18" height="15" viewBox="0 0 18 15" xmlns="http://www.w3.org/2000/svg">
    <path d="M15.7 1.031c-1.837-1.556-4.586-1.305-6.287.445l-.664.69-.664-.69C6.714.066 3.941-.776 1.801 1.03c-2.119 1.79-2.226 5.014-.336 6.956l6.51 6.685c.211.218.498.328.77.328.279 0 .55-.109.761-.326l6.523-6.689c1.9-1.94 1.786-5.163-.33-6.954zm-.439 6.21-6.499 6.691L2.24 7.241C.946 5.918.676 3.39 2.499 1.847c1.847-1.569 4.02-.43 4.811.385L8.75 3.71l1.44-1.478c.78-.803 2.97-1.941 4.812-.385 1.816 1.54 1.55 4.068.26 5.394z" fill="silver" fill-rule="nonzero"/>
</svg>
