<?xml version="1.0" encoding="UTF-8"?>
<svg width="14px" height="15px" viewBox="0 0 14 15" version="1.1" xmlns="http://www.w3.org/2000/svg" xmlns:xlink="http://www.w3.org/1999/xlink">
    <title>7C0A3130-E1E5-447D-9196-54DDE8BA6954</title>
    <g id="Desk" stroke="none" stroke-width="1" fill="none" fill-rule="evenodd">
        <g id="Int-prod" transform="translate(-668.000000, -3236.000000)" fill="#999999" fill-rule="nonzero">
            <g id="Group-19" transform="translate(34.000000, 3058.000000)">
                <g id="Group-14" transform="translate(413.000000, 11.393803)">
                    <g id="Group-10" transform="translate(0.000000, 165.000000)">
                        <g id="Group" transform="translate(221.000000, 2.000000)">
                            <path d="M13.5804375,7.81164453 C13.8518789,7.45962109 14,7 14,6.43857813 C14,5.40842969 13.1230039,4.45421484 12.0113711,4.45421484 L10.093207,4.45421484 C10.3316445,3.97930859 10.6590859,3.39024219 10.6590859,2.54515625 C10.6591133,0.9480625 10.0219766,0 8.39207031,0 C7.57189453,0 7.26753125,1.03682031 7.11158984,1.83826563 C7.01842969,2.31708203 6.93041016,2.769375 6.65973438,3.04005078 C6.01524219,3.68457031 5.03125,5.25 4.44013281,5.56787109 C4.38027734,5.59308203 4.30379688,5.61293359 4.22050781,5.62865625 C4.06265234,5.39995313 3.79889453,5.25 3.5,5.25 L0.875,5.25 C0.391753906,5.25 0,5.64175391 0,6.125 L0,13.125 C0,13.6082461 0.391753906,14 0.875,14 L3.5,14 C3.98324609,14 4.375,13.6082461 4.375,13.125 L4.375,12.8860156 C5.26353516,12.8860156 7.12816016,14.0001914 9.22728516,13.9996172 C9.3778125,13.9996992 10.2567773,14.0004375 10.3487344,13.9996172 C11.9697266,14 12.871332,13.018332 12.818832,11.5443398 C13.2324609,11.0596172 13.4351328,10.3593438 13.3171719,9.7094375 C13.6577656,9.17552344 13.7307734,8.42236719 13.5804375,7.81164453 Z M0.875,13.125 L0.875,6.125 L3.5,6.125 L3.5,13.125 L0.875,13.125 Z M12.4692148,7.5565 C12.90625,7.875 12.90625,9.1875 12.3158984,9.48874609 C12.6856406,10.1110898 12.3528672,10.9438711 11.905332,11.1839492 C12.1320938,12.6205898 11.3868672,13.114582 10.3409414,13.1246445 C10.2503789,13.1254648 9.32246875,13.1246445 9.2273125,13.1246445 C7.23316016,13.1246445 5.54296094,12.0110156 4.37502734,12.0110156 L4.37502734,6.44287109 C5.40610547,6.44287109 6.35211719,4.58516406 7.27846875,3.65878516 C8.11368359,2.82357031 7.83526953,1.43152734 8.39209766,0.874726563 C9.78414063,0.874726563 9.78414063,1.84589453 9.78414063,2.54518359 C9.78414063,3.69878906 8.94892578,4.21561328 8.94892578,5.32924219 L12.0113984,5.32924219 C12.6329219,5.32924219 13.122293,5.88607031 13.1250519,6.44287109 C13.1277344,6.99967187 12.90625,7.4375 12.4692148,7.5565 Z M2.84375,11.8125 C2.84375,12.1749414 2.54994141,12.46875 2.1875,12.46875 C1.82505859,12.46875 1.53125,12.1749414 1.53125,11.8125 C1.53125,11.4500586 1.82505859,11.15625 2.1875,11.15625 C2.54994141,11.15625 2.84375,11.4500586 2.84375,11.8125 Z" id="Shape"></path>
                        </g>
                    </g>
                </g>
            </g>
        </g>
    </g>
</svg>