<svg width="20" height="15" viewBox="0 0 20 15" xmlns="http://www.w3.org/2000/svg">
    <g fill="none" fill-rule="evenodd">
        <path d="M17.7 1.031c-1.837-1.556-4.586-1.305-6.287.445l-.664.69-.664-.69C8.714.066 5.941-.776 3.801 1.03c-2.119 1.79-2.226 5.014-.336 6.956l6.51 6.685c.211.218.498.328.77.328.279 0 .55-.109.761-.326l6.523-6.689c1.9-1.94 1.786-5.163-.33-6.954zm-.439 6.21-6.499 6.691L4.24 7.241c-1.293-1.323-1.563-3.85.26-5.394 1.847-1.569 4.02-.43 4.811.385l1.44 1.478 1.44-1.478c.78-.803 2.97-1.941 4.812-.385 1.816 1.54 1.55 4.068.26 5.394z" fill="silver" fill-rule="nonzero"/>
        <path fill="#FFF" d="M1.125 5.485h2.742l6.485 7.13h-4.29z"/>
        <path d="m7.415 5.082-.166.166a.281.281 0 0 0 0 .398l1.967 1.956H.406a.281.281 0 0 0-.281.28v.235c0 .156.126.281.281.281h8.81L7.25 10.354a.281.281 0 0 0 0 .398l.166.166c.11.11.288.11.398 0l2.73-2.72a.281.281 0 0 0 0-.397l-2.73-2.719a.281.281 0 0 0-.398 0z" fill="silver" fill-rule="nonzero"/>
    </g>
</svg>
