<?xml version="1.0" encoding="UTF-8"?>
<svg width="16px" height="19px" viewBox="0 0 16 19" version="1.1" xmlns="http://www.w3.org/2000/svg" xmlns:xlink="http://www.w3.org/1999/xlink">
    <title>7F37097D-EC8D-43A1-8786-FA7A0BE866FE</title>
    <g id="Desk" stroke="none" stroke-width="1" fill="none" fill-rule="evenodd">
        <g id="Int-prod" transform="translate(-1186.000000, -131.000000)" fill="#fff" fill-rule="nonzero">
            <g id="Group" transform="translate(1186.000000, 131.000000)">
                <path d="M12.5686231,11.426021 C11.5474225,11.426021 10.6333408,11.8723499 10.0049096,12.579335 L6.59495648,10.4476679 C6.93773711,9.61214015 6.94130774,8.66949342 6.59495648,7.83396563 L10.0049096,5.70229859 C10.6333408,6.40928364 11.5474225,6.85561259 12.5686231,6.85561259 C14.4610578,6.85561259 15.9964294,5.32024102 15.9964294,3.42780629 C15.9964294,1.53537157 14.4610578,0 12.5686231,0 C10.6761884,0 9.14081678,1.53537157 9.14081678,3.42780629 C9.14081678,3.8919884 9.2336532,4.33117608 9.39790225,4.73465744 L5.98794912,6.86632448 C5.3630886,6.15933943 4.44900692,5.71301049 3.42780629,5.71301049 C1.53537157,5.71301049 0,7.24838206 0,9.14081678 C0,11.0332515 1.53537157,12.5686231 3.42780629,12.5686231 C4.44900692,12.5686231 5.3630886,12.1222941 5.99151975,11.4153091 L9.40147289,13.5469761 C9.2336532,13.9504575 9.14438741,14.3896452 9.14438741,14.8538273 C9.14438741,16.746262 10.679759,18.2816336 12.5721937,18.2816336 C14.4646284,18.2816336 16,16.746262 16,14.8538273 C15.9964294,12.9613925 14.4610578,11.426021 12.5686231,11.426021 Z M12.5686231,1.1426021 C13.829056,1.1426021 14.8538273,2.16737335 14.8538273,3.42780629 C14.8538273,4.68823923 13.829056,5.71301049 12.5686231,5.71301049 C11.3081901,5.71301049 10.2834189,4.68823923 10.2834189,3.42780629 C10.2834189,2.16737335 11.3081901,1.1426021 12.5686231,1.1426021 Z M3.42780629,11.426021 C2.16737335,11.426021 1.1426021,10.4012497 1.1426021,9.14081678 C1.1426021,7.88038384 2.16737335,6.85561259 3.42780629,6.85561259 C4.68823923,6.85561259 5.71301049,7.88038384 5.71301049,9.14081678 C5.71301049,10.4012497 4.68823923,11.426021 3.42780629,11.426021 Z M12.5686231,17.1390315 C11.3081901,17.1390315 10.2834189,16.1142602 10.2834189,14.8538273 C10.2834189,13.5933943 11.3081901,12.5686231 12.5686231,12.5686231 C13.829056,12.5686231 14.8538273,13.5933943 14.8538273,14.8538273 C14.8538273,16.1142602 13.829056,17.1390315 12.5686231,17.1390315 Z" id="Shape"></path>
            </g>
        </g>
    </g>
</svg>