<svg width="107" height="95" viewBox="0 0 107 95" xmlns="http://www.w3.org/2000/svg">
    <g fill="none" fill-rule="evenodd">
        <rect stroke="#E9E9E9" fill="#FFF" x=".5" y=".5" width="105.875" height="94" rx="5"/>
        <text font-family="NunitoSans-Regular, Nunito Sans" font-size="12" fill="#787878">
                        <tspan x="22.808" y="61">Chatea con </tspan>
                        <tspan x="29.75" y="77">nosotros</tspan>
                    </text>
        <g fill="#A5A5A5" fill-rule="nonzero">
            <path d="M53.444 18c-2.747-.043-5.28.944-7.04 2.662C44.816 22.25 44 24.268 44 26.586c0 4.98 3.992 8.586 9.444 8.586.773 0 1.417-.043 1.975-.172l5.753 2.06v-5.408a8.296 8.296 0 0 0 1.717-5.066c0-4.98-3.993-8.586-9.445-8.586zM60.4 31.265l-.086.129v4.465l-4.808-1.718-.129.043a12.44 12.44 0 0 1-1.932.13c-4.98 0-8.585-3.263-8.585-7.728 0-2.06.73-3.907 2.146-5.323 1.588-1.546 3.907-2.404 6.44-2.404 4.98 0 8.585 3.262 8.585 7.727 0 1.717-.558 3.348-1.631 4.68z"/>
            <path d="M53.444 24.869c-.944 0-1.717.772-1.717 1.717 0 .944.773 1.717 1.717 1.717.945 0 1.718-.773 1.718-1.717 0-.945-.773-1.717-1.718-1.717zm0 2.575a.861.861 0 0 1-.858-.858c0-.472.386-.859.858-.859.473 0 .859.387.859.859a.861.861 0 0 1-.859.858zM48.722 24.869c-.944 0-1.717.772-1.717 1.717 0 .944.773 1.717 1.717 1.717.945 0 1.717-.773 1.717-1.717 0-.945-.772-1.717-1.717-1.717zm0 2.575a.861.861 0 0 1-.858-.858c0-.472.386-.859.858-.859s.859.387.859.859a.861.861 0 0 1-.859.858zM58.167 24.869c-.945 0-1.718.772-1.718 1.717 0 .944.773 1.717 1.718 1.717.944 0 1.717-.773 1.717-1.717 0-.945-.773-1.717-1.717-1.717zm0 2.575a.861.861 0 0 1-.859-.858c0-.472.386-.859.859-.859.472 0 .858.387.858.859a.861.861 0 0 1-.858.858z"/>
        </g>
    </g>
</svg>
